<?xml version="1.0" encoding="UTF-8"?>
<svg xmlns="http://www.w3.org/2000/svg" id="Layer_1" viewBox="0 0 1287.88 656.71">
  <defs>
    <style>
      .cls-1 {
        fill: #ffeea9;
      }
    </style>
  </defs>
  <g>
    <path class="cls-1" d="M55.92,488.15c-.32-.94-.59-1.92-.79-2.93-2.42-12.32,1.32-28.22,11.11-31.62,3.13-1.09,10.03.41,12.43-.42,4.16-1.44-7.3-68.42,10.73-74.67,7.28-2.53,13.23,3.77,15.49,10.3.29.85.53,1.7.69,2.54,4.36,22.17-8.68,40.27-14.37,57.33-3.64,10.88.87,51.62,3.75,66.27.19.97.55,2.31.83,3.76.65,3.31.91,7.13-2.1,8.18-2.95,1.02-4.67-1.41-5.74-4.48-.44-1.28-.77-2.67-1.03-3.97-2.48-12.59-1.96-24.76-4.39-37.11-.47-2.38-.97-3.17-1.58-2.96-3.17,1.1-8.01,14.48-14.31,16.66-5.34,1.85-8.96-1.75-10.73-6.84ZM66.03,485.08c4.74-1.64,12.31-15.89,10.49-21.14-.79-2.27-3.89-3.38-7.58-2.1-6.39,2.22-7.36,13.38-6.13,19.66.52,2.63,1.5,4.18,3.22,3.58ZM87.44,433.4c.23,1.14.54,1.75.97,1.6,4.24-1.47,12.44-28.35,9.88-41.37-.09-.44-.21-.91-.38-1.38-.91-2.63-2.97-5.33-5.72-4.37-6.36,2.21-6.77,35.28-4.76,45.52Z"></path>
    <path class="cls-1" d="M152.78,435.31c.77-.27,1.62-.25,2.54.21,1.15.56,1.77,1.45,1.98,2.5.25,1.28-.13,2.78-.95,4.21-6.55,11.35-21.1,33.45-37.7,39.21-5.78,2-12.31.04-14.71-6.9-.24-.68-.43-1.4-.58-2.17-2.19-11.11,6.12-35.62,17.35-39.51,3.58-1.24,8.1.86,9.63,5.28.14.41.26.83.34,1.28,2.06,10.46-8.15,20.58-15.52,23.14-3.16,1.1-4.84,4.49-3.76,7.6,1.07,3.08,4.13,3.89,6.97,2.91,12.9-4.47,23.98-22.17,30.58-33.92.93-1.65,2.28-3.28,3.83-3.82ZM121.2,442.99c-1.71.59-5.1,6.06-4.79,7.62.08.42.36.59.81.43,2.43-.84,4.97-6.72,4.79-7.63-.08-.42-.36-.58-.8-.42Z"></path>
    <path class="cls-1" d="M183.12,423.82c2.27-.79,4.25.43,4.66,2.49.25,1.28-.1,2.88-1.36,4.53-6.28,8.22-21.98,18.14-27.53,26.72-1.01,1.72-1.24,3.06-1.02,4.21.42,2.11,2.39,3.61,4.08,5.71,1.71,2.38,3.26,5.69,4.63,9.62,1.37,3.94,2.55,8.51,3.51,13.39,3.29,16.71,7.24,54.3-4.96,58.53-4.05,1.4-7.26-3.59-9.34-9.58-.79-2.27-1.41-4.69-1.86-6.96-5.96-30.3.87-46.81-4.06-61.04-1.39-4-7.72-.47-8.91-3.92-2.43-7.02,8.16-8.28,8.52-15.23.2-3.87-.16-8.06-.24-11.94-.06-4.13-.68-24.89,0-27.49.5-1.91,1.75-3.19,3.11-3.66,1.91-.66,4.03.26,4.62,3.25.63,3.18.16,10.21.13,13.81-.03,3.03-.24,16.79.41,20.08.06.3.12.51.23.61,1.59-.55,13.42-12.43,15.59-14.53,2.08-2,7.5-7.81,9.81-8.61ZM161.62,488.83c-.4-2.03-.84-3.84-1.31-5.2-.32-.92-.65-1.63-1-2.06-.21-.26-.38-.35-.52-.3-2.67.93-.02,33.53,2.6,46.81.5,2.53,1.54,6.82,2.41,6.52,3.99-1.38-.93-39.37-2.18-45.77Z"></path>
    <path class="cls-1" d="M184.82,414.44c1.82-.63,4.07.92,4.49,3.07,1.15,5.85-3.77,11.64-2.54,17.9.51,2.57,2.38,4.03,4.85,3.17,6.43-2.23,18.45-28.45,21.16-32.09,1.08-1.45,2.26-2.32,3.36-2.7,1.91-.66,3.68.09,4.11,2.25.93,4.72-3.54,17.87-2.42,23.52.11.57.3,1.08.72.94,4.52-1.57,8.36-28.28,20.37-32.45,4.14-1.44,7.45,2.93,9.43,6.85,3.31,6.82,4.6,10.67,8.11,9.46,7.08-2.46,17.33-17.82,20.08-18.77,2.23-.77,3.99.48,4.38,2.49,1.05,5.36-17.13,22.27-24.17,24.72-5.74,1.99-9.12-.76-12.63-7.66-1.9-3.75-3.45-6.36-5.4-5.68-5.09,1.77-8.93,17.26-11.01,22.13-1.26,2.96-5.6,15.03-10.46,16.72-2.47.86-5.27-.79-6.31-3.79-1.74-5.01-1.3-11.44-1.03-17.26-5.4,8.81-11.97,17.98-17.4,19.86-4.79,1.66-10.89-.33-13.08-6.63-.21-.59-.38-1.22-.51-1.89-1.09-5.54.45-22.26,5.9-24.15ZM190.45,382.01c1.98-.69,4.06.02,4.51,2.31.18.92.1,2.09-.36,3.53-1.7,5.36-1.12,5.19-1.61,10.16-.24,2.47-1.03,5.75-3.4,6.57-2.58.9-4.25-.98-4.76-3.15-.71-4.57.03-17.48,5.6-19.41Z"></path>
    <path class="cls-1" d="M280.25,381.34c1.82-.63,4.07.92,4.49,3.07,1.15,5.85-3.77,11.64-2.54,17.9.51,2.57,2.38,4.03,4.85,3.17,6.43-2.23,18.45-28.45,21.16-32.09,1.08-1.45,2.26-2.32,3.36-2.7,1.91-.66,3.68.09,4.11,2.25.93,4.72-3.54,17.87-2.42,23.52.11.57.3,1.08.72.94,4.52-1.57,8.36-28.28,20.37-32.45,4.14-1.43,7.45,2.93,9.43,6.85,3.31,6.82,4.6,10.67,8.11,9.46,7.08-2.46,17.33-17.82,20.08-18.78,2.23-.77,3.99.48,4.38,2.49,1.05,5.36-17.13,22.27-24.17,24.72-5.74,1.99-9.12-.76-12.63-7.66-1.9-3.75-3.45-6.36-5.4-5.68-5.09,1.77-8.93,17.26-11.01,22.13-1.26,2.96-5.6,15.03-10.46,16.72-2.47.86-5.27-.79-6.31-3.79-1.74-5.01-1.3-11.44-1.03-17.26-5.4,8.81-11.97,17.98-17.4,19.86-4.79,1.66-10.89-.33-13.08-6.63-.21-.59-.38-1.22-.51-1.89-1.09-5.54.45-22.26,5.9-24.15ZM285.88,348.9c1.98-.69,4.06.02,4.51,2.31.18.92.1,2.09-.36,3.53-1.7,5.36-1.12,5.19-1.61,10.16-.24,2.47-1.03,5.75-3.4,6.57-2.58.89-4.25-.98-4.75-3.16-.71-4.57.03-17.48,5.6-19.41Z"></path>
    <path class="cls-1" d="M402.02,392.58c2.97-5.22,2.09-31.52,1.26-35.76-.13-.66-.24-1.22-.59-1.1-2.64.92-9.69,20.09-20.27,23.76-5.54,1.92-10.74-.68-12.5-5.77-.17-.48-.3-.98-.41-1.5-2.59-13.19,10.68-34.57,22.23-38.57,3.65-1.27,5.37.96,7.64.18,1.56-.54,4.63-5.14,6.29-5.71,1.77-.61,3.6,1.39,4.46,3.86.14.41.26.84.34,1.27,4.07,20.69,1.02,41.04,2.57,48.91.44,2.24,1.51,2.53,2.92,2.04,1.73-.6,16.36-7.57,18.62-8.36,1.99-.69,5.11-.35,5.63,2.28,1.66,8.44-28.41,11.51-28.12,23.28.59,24.22-3.85,66.11-25.28,73.54-8.39,2.91-12.89-2.45-15.22-9.15-.56-1.63-1-3.34-1.33-5.02-4.19-21.29,8.3-43.78,18.59-54.74,3.87-4.13,10.48-8.72,13.17-13.44ZM396.97,345.31c-.44-2.22-2.51-2.85-4.24-2.25-7.74,2.68-16.9,18.77-15.46,26.05.41,2.09,1.69,2.52,3.26,1.97,5.66-1.96,17.78-18.97,16.44-25.77ZM401.48,405.05c-9.48,3.29-27.06,36.74-23.62,54.21.2,1.01.45,1.99.76,2.89,1.17,3.37,3.19,5.62,6.52,4.46,12.67-4.4,19.86-52.64,18.45-59.78-.34-1.7-1.1-2.12-2.11-1.77Z"></path>
    <path class="cls-1" d="M483.38,360.13c.38,1.94.79,3.72,1.29,5.16.94,2.71,2.2,4.26,4.2,3.57,7.54-2.62,13.39-39.11,16.33-46.07.98-2.32,2.68-7.29,5.04-8.11,1.67-.58,3.69.57,4.07,2.5.83,4.23-4.46,12.03-5.2,15.54-2.71,12.81-9.12,41.89-19.98,45.66-5.78,2-9.39-1.92-11.6-8.28-.63-1.82-1.15-3.83-1.56-5.96-5.07-25.78-3-93.15-2.89-110.21.02-2.93.21-9.31,3.62-10.5,2.71-.94,4.1,1.18,4.62,3.81,1.79,9.07-.95,37.28-.89,54.37.02,5.87.11,44.1,2.95,58.52Z"></path>
    <path class="cls-1" d="M539.63,309.02c.09.44.2.86.34,1.26.92,2.66,2.94,4.12,5.7,3.17,5.95-2.06,13.72-13.57,16.59-17.07,1.1-1.33,2.4-2.57,3.72-3.02,1.42-.49,3.72.27,4.18,2.6.72,3.65-4.28,9.04-6.36,11.64-4.08,5.12-10.14,12.07-16.43,14.25-9.74,3.38-11.21-3.97-13.93-3.03-2.76.96-5.24,15.69-12.21,18.11-5.95,2.06-9.21-1.5-11-6.66-.45-1.3-.81-2.71-1.09-4.15-.85-4.34-1.03-8.98-1.08-12.03-.06-3.67-.08-13.34,1.78-16.73.72-1.31,1.65-2.09,2.6-2.42,1.94-.67,3.97.54,4.47,3.03.95,4.84-.85,10.51-.98,15.57-.04,1.22-.22,7.16.57,11.18.49,2.46,1.34,4.21,2.82,3.69,5.51-1.91,9.01-25.08,10.9-30.99.82-2.54,2.53-7.32,5.32-8.29,2.22-.77,3.5.71,3.92,2.83.83,4.23-.83,11.98.17,17.06Z"></path>
    <path class="cls-1" d="M609.54,256.14c.33,1.66-.39,3.8-2.86,5.83-5.03,3.86-21.42,36.42-19.63,41.58.64,1.85,3.46,1.22,7.7-.25,13.7-4.75,22.99-17.13,31.79-28.59,1.14-1.49,2.62-3.06,4.14-3.59,1.48-.51,3.71.37,4.16,2.65.71,3.62-3.96,8.71-6.1,11.3-9.93,12-18.34,21.27-30.98,25.65-3.33,1.16-7.37,1.37-11.03,2.64-8,2.78-9.66,14.89-11.05,22.53-.45,2.46-1.43,5.54-3.55,6.27-2.14.74-4.08-.81-4.5-2.99-2.09-10.63,7.78-23.28,5.77-29.08-1.16-3.35-5.08-4.68-7.26-7.38-1.82-2.26-4.74-6.92-6.38-11.66-.39-1.12-.71-2.25-.92-3.35-.72-3.69-.27-8.28,3.27-9.5,2.3-.8,4.13.85,4.72,3.84.27,1.37.32,2.47.58,3.79.08.39.21.85.39,1.38,1.61,4.64,7.01,13.87,9.79,12.9,1.32-.46,2.68-2,4-5.14,3.7-8.81,13.05-38.26,22.59-41.57,2.57-.89,4.93.5,5.37,2.75Z"></path>
    <path class="cls-1" d="M659.7,267.37c.09.44.2.86.34,1.26.92,2.66,2.94,4.12,5.7,3.17,5.95-2.06,13.72-13.58,16.59-17.07,1.1-1.33,2.4-2.56,3.72-3.02,1.43-.49,3.72.27,4.18,2.6.72,3.65-4.28,9.04-6.36,11.64-4.09,5.12-10.14,12.07-16.43,14.25-9.74,3.38-11.21-3.97-13.93-3.03-2.76.96-5.24,15.69-12.21,18.11-5.95,2.06-9.21-1.5-11-6.66-.45-1.3-.81-2.71-1.09-4.15-.85-4.34-1.03-8.98-1.08-12.03-.06-3.67-.08-13.34,1.78-16.73.72-1.31,1.65-2.09,2.6-2.42,1.94-.67,3.98.54,4.47,3.03.95,4.84-.85,10.51-.98,15.57-.04,1.22-.22,7.16.57,11.18.49,2.46,1.34,4.21,2.82,3.69,5.51-1.91,9.01-25.08,10.9-30.99.81-2.54,2.53-7.32,5.32-8.29,2.22-.77,3.5.71,3.92,2.83.83,4.23-.83,11.98.17,17.07Z"></path>
    <path class="cls-1" d="M685.57,234.45c1.88-.65,3.93.44,4.62,3.92.46,2.33.06,5.32.55,7.85.16.79.4,1.28.79,1.14,2.78-.96,6.04-20.84,16.02-24.3,2.7-.94,4.81.09,5.25,2.33.29,1.49-.28,3.38-2.17,5.09-11.52,10.49-15.07,30.2-18.66,44.88-.58,2.38-2.06,4.06-3.63,4.61-1.91.66-3.96-.38-4.66-3.94-1.66-8.44-.74-16.98-1.14-25.36-.25-5.01-1.87-14.53,3.02-16.22Z"></path>
    <path class="cls-1" d="M720.14,233.3c1.95-.68,4.12.2,4.67,2.97.49,2.51.19,5.96.66,8.37.16.82.36,1.59.61,2.29,1.13,3.27,3.2,5.04,6.58,3.87,14.46-5.01,15.04-24.61,17.44-35.72.48-2.22,1.43-6.36,3.82-7.18,2.39-.83,3.86,1.17,4.78,3.84.36,1.04.64,2.17.86,3.28,3.16,16.07,2.93,44.15,3.5,47.09.34,1.71.86,2.02,1.84,1.68,1.03-.36,3.03-1.76,5.46-2.61,3.2-1.11,5.15.27,5.54,2.26.31,1.59-.38,3.56-2.24,4.94-6.47,4.82-11.17,2.06-11.8,14.26-.23,4.42,0,8.96-.22,13.57-.93,18.29-5.23,51.65-25.5,58.69-8.13,2.82-13.82-.99-16.56-8.88-.43-1.25-.79-2.6-1.08-4.04-5.1-25.93,11.51-52.26,29.13-66.54,9.42-7.57,6.24-29.79,5.57-33.19-.17-.85-.46-1.79-.75-1.68-.54.19-8.07,15.67-18.18,19.18-6.98,2.42-13.26-1.41-16.03-9.4-.37-1.07-.68-2.21-.91-3.42-.61-3.09-.64-5.65-.56-8.53.12-2.74,1.65-4.52,3.35-5.11ZM751.49,282.17c-9.34,3.24-29,37.44-25.33,56.1.19.94.42,1.83.7,2.64,1.49,4.3,4.27,6.61,7.75,5.41,17.22-5.97,21.62-51.08,19.49-61.93-.42-2.13-1.38-2.65-2.61-2.22Z"></path>
    <path class="cls-1" d="M826.04,192.01c1.82-.63,4.06.92,4.49,3.07,1.15,5.85-3.77,11.64-2.54,17.9.5,2.57,2.38,4.03,4.85,3.17,6.43-2.23,18.45-28.45,21.16-32.09,1.08-1.45,2.26-2.32,3.36-2.7,1.91-.66,3.69.09,4.11,2.25.93,4.72-3.54,17.87-2.42,23.52.11.57.3,1.08.72.94,4.52-1.57,8.36-28.28,20.37-32.45,4.14-1.44,7.46,2.93,9.43,6.85,3.31,6.82,4.6,10.67,8.1,9.46,7.09-2.46,17.33-17.82,20.08-18.77,2.23-.77,3.99.48,4.38,2.49,1.05,5.36-17.13,22.28-24.17,24.72-5.74,1.99-9.12-.76-12.63-7.66-1.9-3.75-3.45-6.36-5.39-5.68-5.1,1.77-8.93,17.26-11.01,22.14-1.26,2.96-5.6,15.03-10.46,16.72-2.47.86-5.27-.79-6.31-3.79-1.74-5.01-1.29-11.44-1.03-17.26-5.4,8.81-11.97,17.97-17.4,19.86-4.79,1.66-10.89-.33-13.08-6.63-.21-.59-.38-1.22-.51-1.9-1.09-5.54.45-22.26,5.9-24.15ZM831.67,159.57c1.98-.69,4.06.02,4.52,2.31.18.92.1,2.09-.36,3.53-1.7,5.36-1.12,5.19-1.61,10.16-.24,2.47-1.03,5.75-3.4,6.57-2.58.9-4.25-.98-4.76-3.15-.71-4.57.03-17.48,5.6-19.41Z"></path>
    <path class="cls-1" d="M992.3,177.18c-3.54,1.23-5.74-2.12-7.09-6-.58-1.67-1-3.44-1.3-4.99-2.45-12.43-2.31-26.44-2.53-39.12-.18-10.42-.14-20.84-.03-31.27-2.5,1.8-12.39,7.52-13.5,9.46-.96,2.08-.28,8.54-.21,11.16.42,15.6.71,30.96,1.48,46.53.58,11.63,1.16,23.72,2.18,35.24.49,5.56,1.17,10.83,2.2,16.07.6,3.04,1.54,6.06,2.15,9.16.51,2.6.2,5.3-2.6,6.27-3.06,1.06-4.68-1.26-5.62-3.99-.46-1.34-.77-2.77-1-3.96-.07-.33-.13-.65-.19-.95-3.94-20.03-5.09-37.64-5.49-58.47-.29-15.44-.29-30.92-.6-46.36-.02-.93.11-4.38-.21-6-.22-1.12-.56-1.02-1.82-.58-1.59.55-3.92,1.73-4.54,2.01-4.71,2.01-9.37,3.73-14.05,5.65-1.37.57-4,1.98-6.56,2.87-2.88,1-5.66,1.33-6.46-.98-1.58-4.55,3.75-6.19,6.52-7.29,4.43-1.77,24-9.17,26.09-10.97.98-1.07.53-3.36.43-4.62-.18-3.53-.59-15.57.52-18.62.68-1.32,1.5-2.07,2.35-2.37,1.98-.69,4.08,1.12,4.69,4.2,1.06,5.38.81,10.54.85,16,0,.2.01.36.04.48.06.3.19.37.4.29,4.52-1.57,9.45-6.21,12.73-9.74.5-.55.34-.47.34-1.37.02-3.06-.23-11.65.7-14.25.78-2.17,2.35-3.83,4.03-4.41,2.68-.93,4.73,1.4,5.82,4.54.23.67.42,1.38.56,2.1.71,3.61.22,7.53-1.52,11.2-1.62,3.42-1.62,2.4-1.69,6.18-.39,22.93-2.72,47.71,1.68,70.07.45,2.26,1.03,3.01,1.68,2.78.98-.34,2.13-2.91,3.2-5.79,1.86-5.05,7.12-25.93,14.1-28.36,8.12-2.82,8.8,17.5,13.76,15.78,4.79-1.66,11.11-15.42,13.84-16.37,2.08-.72,4.2.47,4.64,2.69.22,1.12,0,2.51-.85,4.05-2.11,3.75-8.44,11.79-11.54,14.72-2.29,2.09-4.3,3.43-6.1,4.05-4.37,1.52-7.49-1.14-10.19-7.31-1.6-3.65-2.64-5.21-3.61-4.88-.95.33-1.81,2.49-3.06,6.29-2.67,8.17-5.93,22.14-12.38,27.84-.81.63-1.56,1.05-2.26,1.3Z"></path>
    <path class="cls-1" d="M1080.53,113.49c.77-.27,1.62-.25,2.54.21,1.15.56,1.77,1.45,1.98,2.5.25,1.28-.13,2.78-.95,4.21-6.55,11.35-21.1,33.45-37.7,39.21-5.78,2-12.31.04-14.71-6.9-.24-.68-.43-1.4-.58-2.17-2.19-11.11,6.12-35.62,17.35-39.51,3.59-1.24,8.1.86,9.63,5.28.14.41.26.83.34,1.28,2.06,10.46-8.15,20.58-15.52,23.14-3.16,1.1-4.84,4.49-3.76,7.6,1.07,3.08,4.13,3.89,6.97,2.91,12.9-4.47,23.98-22.17,30.58-33.92.93-1.65,2.28-3.28,3.83-3.82ZM1048.95,121.16c-1.71.59-5.1,6.06-4.79,7.62.08.42.36.59.8.43,2.43-.84,4.97-6.72,4.79-7.63-.08-.42-.36-.58-.8-.42Z"></path>
  </g>
  <g>
    <path class="cls-1" d="M312.4,558.83c-.5-1.43-.91-3.13-1.29-5.07-6.08-30.91-2.49-71.18-2.02-100.72.03-2.17.33-4.63,3.27-5.65,2.17-.75,4.36.49,4.81,2.78.69,3.53-.15,9.12-.22,12.84-.47,24.64-1.52,59.15,1.06,83.21.08.66.18,1.23.27,1.73.45,2.26,1.03,3.01,1.68,2.78,3.91-1.36,7.58-38.31,17.5-41.75,1.48-.51,3.03-.2,4.65,1.27,3.96,3.58,5.16,15.89,9.1,14.52,4.79-1.66,14.19-16.49,15.82-17.05,2.08-.72,4.2.47,4.64,2.69.22,1.12.01,2.51-.85,4.05-3.2,5.66-12.64,17.04-19.63,19.46-8.58,2.98-10.85-13.21-13.8-12.19-4.41,1.53-7.99,39.08-15.64,41.73-5.28,1.83-7.77-.02-9.36-4.62Z"></path>
    <path class="cls-1" d="M410.15,492.75c.77-.27,1.62-.25,2.54.21,1.15.56,1.77,1.45,1.98,2.5.25,1.28-.12,2.78-.95,4.21-6.55,11.35-21.1,33.45-37.7,39.21-5.78,2-12.31.04-14.71-6.9-.23-.68-.43-1.4-.58-2.17-2.19-11.11,6.12-35.62,17.35-39.51,3.59-1.24,8.1.86,9.63,5.28.14.41.26.83.34,1.28,2.06,10.46-8.15,20.58-15.52,23.14-3.16,1.1-4.84,4.49-3.76,7.6,1.07,3.08,4.13,3.89,6.97,2.91,12.9-4.47,23.98-22.17,30.58-33.92.93-1.65,2.28-3.28,3.83-3.82ZM378.57,500.42c-1.71.59-5.1,6.06-4.79,7.62.08.42.36.59.81.43,2.43-.84,4.97-6.72,4.79-7.63-.08-.42-.36-.58-.8-.42Z"></path>
    <path class="cls-1" d="M467.35,472.94c1.84-.64,4.1.72,4.48,2.63.27,1.39-.19,3.04-1.04,4.53-3.76,6.54-16.62,27.31-26.66,30.79-3.49,1.21-7.6.21-9.41-4.99-.48-1.4-.94-3.7-1.54-5.43-.52-1.5-1.15-2.57-1.99-2.28-1.62.56-3.46,5.1-4.1,6.3-2.43,4.54-9.89,15.51-16.01,17.63-3.09,1.07-5.75-.69-7.03-4.37-.19-.56-.36-1.16-.48-1.8-1.93-9.82,4.29-28.68,14.48-32.21,4.8-1.66,8.13,1.4,10.07.73,3.19-1.11,3.23-10.06,7.16-11.42,2.27-.79,4.17.84,4.6,3.05,1.3,6.6-.87,13.15.66,20.95.49,2.47,1.21,5.7,3.45,4.92,8.35-2.9,15.76-18.4,19.7-25.34.92-1.63,2.19-3.17,3.67-3.68ZM411.29,510.68c.12.62.34.92.94.71,3.14-1.09,11.68-14.55,11.06-17.66-.25-1.24-2.01-1.49-3.67-.91-4.72,1.64-9.36,12.61-8.33,17.86Z"></path>
    <path class="cls-1" d="M466.64,457.12c1.88-.65,3.93.44,4.62,3.92.46,2.33.06,5.32.55,7.85.16.79.4,1.28.79,1.14,2.78-.96,6.04-20.84,16.02-24.3,2.7-.94,4.81.09,5.25,2.33.29,1.49-.28,3.38-2.16,5.09-11.52,10.49-15.07,30.2-18.66,44.88-.58,2.38-2.06,4.06-3.63,4.61-1.91.66-3.96-.38-4.66-3.94-1.66-8.44-.74-16.98-1.14-25.36-.25-5.01-1.87-14.53,3.02-16.22Z"></path>
    <path class="cls-1" d="M546.13,385.71c.74,2.13-.74,4.73-4.14,6.58-6.96,3.8-35.39,13.04-36.68,19.14-1.29,6.17.47,34.2.83,42.69.94,21.93,2.04,51.56,5.1,67.11.6,3.03,1.55,6.04,2.16,9.15.51,2.61.21,5.31-2.6,6.29-3.06,1.06-4.68-1.27-5.62-3.99-.47-1.35-.77-2.79-1-3.97-.09-.45-.16-.84-.25-1.27-6.1-30.99-5.62-105.55-6.42-109.61-.55-2.8-2.93-2.29-5.92-1.25-9.17,3.18-15.95,11.14-23.88,13.89-2.17.75-4.08.37-4.69-2.69-.43-2.2.92-5.3,4.23-7.86,8.32-6.07,16.7-8.26,24.96-13.41,10.01-6.24,1.86-14,5.61-22.09.67-1.32,1.5-2.07,2.35-2.37,1.98-.69,4.08,1.12,4.68,4.2.44,2.24-.37,7.59.33,11.18.33,1.69.76,2.26,2.22,1.75,5.34-1.85,27.09-13.23,32.28-15.03,3.53-1.23,5.82-.24,6.44,1.54Z"></path>
    <path class="cls-1" d="M618.03,420.3c2.23-.77,4.02.61,4.42,2.63.16.81.1,1.72-.25,2.64-2.59,6.74-9.42,10.27-15.86,12.51-4.23,1.47-8.29,2.38-10.87,3.27-1.63.56-2.66,1.12-2.77,1.81-1.35,8.38-9.08,20.67-17.63,23.63-5.89,2.04-10.64-.68-12.3-5.48-.17-.49-.31-.99-.41-1.52-1.36-6.91,2.06-15.8,4.82-21.65.87-1.62,2.16-3.12,3.65-3.64,2.4-.83,3.69.52,4.07,2.44.22,1.13.13,2.47-.24,3.66-1.24,3.44-5.43,11.44-4.6,15.68.39,1.97,1.88,2.57,3.5,2,6.28-2.18,13.03-14.18,11.88-20.04-.35-1.78-1.5-3.18-3.89-3.82-2.63-.71-6.18-.93-7.09-3.54-1.25-3.61,1.73-6.72,4.53-7.69,2.02-.7,4.29-.71,5.98-.12,5.98,2.09,6.95,12.59,16.14,9.4,5.58-1.94,10.83-6.64,14.31-10.33.91-.97,1.8-1.55,2.63-1.84Z"></path>
    <path class="cls-1" d="M648.29,409.18c2.27-.79,4.25.43,4.66,2.5.25,1.28-.1,2.88-1.36,4.53-6.28,8.22-21.98,18.14-27.53,26.72-1.01,1.72-1.24,3.06-1.02,4.21.42,2.11,2.4,3.61,4.08,5.71,1.71,2.38,3.26,5.69,4.63,9.62,1.37,3.94,2.55,8.51,3.51,13.39,3.29,16.71,7.24,54.3-4.96,58.53-4.05,1.4-7.26-3.59-9.34-9.58-.79-2.27-1.42-4.69-1.86-6.96-5.96-30.3.87-46.81-4.06-61.04-1.39-4-7.72-.47-8.91-3.92-2.43-7.01,8.16-8.28,8.52-15.23.2-3.87-.16-8.06-.24-11.94-.06-4.13-.68-24.89,0-27.49.5-1.91,1.75-3.19,3.11-3.66,1.91-.66,4.03.26,4.62,3.25.63,3.18.16,10.21.13,13.81-.03,3.03-.24,16.79.4,20.08.06.3.12.51.23.61,1.59-.55,13.42-12.43,15.59-14.54,2.08-2,7.5-7.81,9.8-8.61ZM626.79,474.19c-.4-2.03-.84-3.84-1.31-5.2-.32-.92-.65-1.63-1-2.06-.21-.26-.38-.35-.52-.3-2.67.93-.02,33.53,2.59,46.81.5,2.53,1.55,6.82,2.41,6.52,3.99-1.38-.93-39.37-2.18-45.77Z"></path>
    <path class="cls-1" d="M750.75,296.16c7.33-2.54,15.18-1.53,17.93,6.4.24.7.45,1.45.61,2.26,2.19,11.12-6.75,26.14-12.65,35.08-1.25,1.88-4.01,5.6-6.63,6.51-1.55.54-3.47-.2-3.85-2.17-.75-3.83,4.71-10.35,6.5-13.17,2.51-3.97,11.18-17.37,8.87-24.02-1.26-3.64-5.68-3.54-9.71-2.14-24.8,8.6-67.61,56.41-62.45,82.67.09.48.22.95.38,1.4,4.98,14.34,40.79,17.83,55.56,20.47,4.11.74,6.97.68,9.26-.12,4.5-1.56,6.78-5.97,11.89-12.78,7.36-9.82,14.29-19.83,21.02-30.12,1.18-1.82,3.18-4.52,5.24-5.24,1.4-.49,3.53.29,3.96,2.48,1.24,6.29-22.1,34.43-27.79,41.78-2.43,3.14-5.5,7.01-4.78,10.65.08.43.2.84.34,1.25,1,2.89,3.25,5.18,4.08,7.57,5.53,15.93-17.38,39.59-26.93,47.66-3.65,2.91-10.51,7.55-16.98,9.8-6.06,2.1-12.34,2.16-14.43-3.88-.17-.49-.31-1.02-.43-1.59-2.17-11.04,12.83-27.87,19.21-35.49,3.13-3.76,16.96-16.96,15.3-21.73-2.51-7.22-53.37.45-62.33-25.4-.34-1-.63-2.04-.84-3.14-6.1-31,37.92-83.96,69.66-94.97ZM754.79,425.31c-1.79.62-3.81,1.97-5.75,3.84-6.04,5.8-32.92,34.88-31.13,44,.4,2.04,3.09,1.64,5.33.86,15.45-5.36,40.25-29.19,36.99-45.81-.61-3.1-2.77-3.81-5.45-2.89Z"></path>
    <path class="cls-1" d="M835.86,345.08c.77-.27,1.62-.25,2.54.21,1.14.56,1.77,1.45,1.98,2.5.25,1.28-.12,2.78-.95,4.21-6.55,11.35-21.1,33.45-37.7,39.21-5.78,2-12.31.04-14.71-6.9-.23-.68-.43-1.4-.58-2.17-2.19-11.11,6.12-35.62,17.35-39.51,3.59-1.24,8.1.86,9.63,5.28.14.41.26.83.34,1.28,2.06,10.46-8.15,20.58-15.52,23.14-3.16,1.1-4.84,4.49-3.76,7.6,1.07,3.08,4.13,3.89,6.97,2.91,12.9-4.47,23.98-22.17,30.58-33.92.93-1.66,2.28-3.28,3.83-3.82ZM804.29,352.75c-1.71.59-5.1,6.06-4.79,7.62.08.42.36.59.8.43,2.44-.84,4.97-6.72,4.79-7.63-.08-.42-.36-.58-.8-.42Z"></path>
    <path class="cls-1" d="M893.06,325.26c1.84-.64,4.1.72,4.48,2.63.27,1.39-.19,3.04-1.04,4.53-3.76,6.54-16.62,27.31-26.66,30.79-3.49,1.21-7.6.21-9.4-4.99-.48-1.4-.94-3.7-1.54-5.43-.52-1.5-1.15-2.57-1.99-2.28-1.62.56-3.46,5.1-4.1,6.3-2.43,4.54-9.89,15.51-16.01,17.63-3.09,1.07-5.75-.69-7.03-4.37-.19-.56-.36-1.16-.48-1.8-1.93-9.82,4.29-28.68,14.48-32.21,4.8-1.66,8.13,1.4,10.07.73,3.19-1.11,3.23-10.06,7.16-11.42,2.27-.79,4.17.84,4.6,3.05,1.3,6.6-.87,13.15.66,20.95.48,2.47,1.21,5.7,3.45,4.92,8.35-2.9,15.76-18.4,19.7-25.34.92-1.63,2.19-3.17,3.67-3.69ZM837.01,363c.12.62.34.92.94.71,3.13-1.09,11.68-14.55,11.06-17.66-.25-1.24-2.01-1.49-3.68-.91-4.72,1.64-9.36,12.61-8.32,17.85Z"></path>
    <path class="cls-1" d="M957.14,247.28c2.45-3.39,5.42-7.58,4.2-11.08-.83-2.39-4.76-4.85-5.42-6.73-1.65-4.75,5.4-14.72,8.05-15.64,1.65-.57,3.23.32,4.41,3.71.22.65.44,1.4.63,2.24.74,3.35,1.16,5.74,1.68,7.22.57,1.65,1.26,2.2,2.62,1.72,1.43-.5,3.6-2.12,7.16-4.76,4.36-3.24,8.97-5.61,13.76-7.27,14.95-5.19,28.35-3.21,32.99,10.15.41,1.18.75,2.45,1.02,3.8,1.6,8.15.08,19.36-5.9,33.86-10.23,24.04-29.94,47.45-49.52,63.58-7.04,6.14-6.75,12.22-6.86,20.83-.12,10.8-1.23,22.06.98,33.34.1.5.23.96.38,1.4,1.25,3.61,4.07,4.94,5.02,7.66.82,2.36-1.29,5.24-3.74,6.09-3.86,1.34-6.56-1.68-8.07-6.02-.35-1.01-.64-2.1-.86-3.22-2.64-13.4-.8-42.27-1.31-44.83-.55-2.82-1.96-3.19-3.98-2.49-3.11,1.08-8.38,4.54-12.68,6.03-8.88,3.08-19.15,1.78-22.75-8.62-.32-.92-.59-1.91-.79-2.97-.85-4.3-.81-9.72.29-16.41.3-1.84,1.59-3.34,3.16-3.88,2.4-.83,4.37.71,4.78,2.78.1.51.11,1.07.02,1.64-.83,5.49-.93,9.77-.3,12.96.13.7.31,1.34.51,1.93,1.99,5.75,7.21,6.67,15.46,3.8,14.97-5.19,17.12-9.34,17.31-23.17.07-7.48,3.31-55.21,2.36-60.03-.03-.14-.14-.22-.24-.19-10.29,8.59-18.38,45.89-15.66,59.69.53,2.71-.39,6.06-2.88,6.92-2.84.99-4.54-.81-5.07-3.27-1.33-25.87,3.14-48.57,19.24-70.78ZM967.36,319.61c.22,1.15,1,1.34,1.79,1.07,11.59-4.02,38.91-42.6,45.86-58.93,5.21-12.62,6.6-21.92,5.36-28.26-.18-.92-.41-1.76-.68-2.55-3.12-8.99-12.11-9.75-22.73-6.06-9.51,3.3-21.59,9.84-25.23,17.95-2.74,6.09-2.02,16.32-2.28,23.01-.3,7.85-.65,15.7-1,23.55-.2,4.19-1.61,27.51-1.08,30.22Z"></path>
    <path class="cls-1" d="M1086.85,257.67c2.23-.77,4.02.61,4.41,2.62.16.81.1,1.73-.26,2.64-2.59,6.74-9.42,10.27-15.86,12.51-4.23,1.47-8.29,2.38-10.87,3.27-1.63.56-2.66,1.12-2.77,1.81-1.34,8.38-9.08,20.67-17.63,23.63-5.89,2.04-10.64-.68-12.3-5.48-.17-.48-.3-.99-.41-1.51-1.36-6.91,2.05-15.8,4.82-21.65.86-1.62,2.15-3.12,3.65-3.64,2.4-.83,3.69.52,4.06,2.44.22,1.13.13,2.47-.24,3.66-1.24,3.44-5.44,11.44-4.6,15.68.39,1.97,1.88,2.57,3.5,2,6.28-2.18,13.04-14.18,11.88-20.04-.35-1.78-1.5-3.17-3.89-3.82-2.63-.71-6.18-.93-7.09-3.54-1.25-3.61,1.73-6.72,4.53-7.69,2.02-.7,4.29-.71,5.98-.12,5.98,2.09,6.95,12.59,16.14,9.4,5.58-1.94,10.83-6.64,14.31-10.33.91-.97,1.8-1.55,2.63-1.84Z"></path>
    <path class="cls-1" d="M1088.9,247.54c1.82-.63,4.06.92,4.49,3.07,1.15,5.85-3.77,11.64-2.54,17.9.5,2.57,2.38,4.03,4.85,3.17,6.43-2.23,18.45-28.45,21.16-32.09,1.08-1.45,2.26-2.32,3.36-2.7,1.91-.66,3.69.09,4.11,2.25.93,4.72-3.54,17.87-2.42,23.52.11.57.3,1.08.72.94,4.52-1.57,8.36-28.28,20.37-32.45,4.14-1.43,7.45,2.93,9.43,6.85,3.31,6.82,4.6,10.67,8.11,9.46,7.09-2.46,17.33-17.82,20.08-18.77,2.23-.77,3.99.48,4.38,2.49,1.05,5.36-17.13,22.27-24.17,24.72-5.74,1.99-9.12-.76-12.63-7.66-1.9-3.75-3.45-6.36-5.4-5.68-5.09,1.77-8.93,17.26-11.01,22.13-1.26,2.96-5.6,15.03-10.46,16.72-2.47.86-5.27-.79-6.31-3.79-1.74-5.01-1.29-11.44-1.03-17.26-5.4,8.81-11.97,17.98-17.4,19.86-4.79,1.66-10.89-.33-13.08-6.63-.21-.59-.38-1.22-.51-1.9-1.09-5.54.45-22.26,5.9-24.15ZM1094.53,215.11c1.98-.69,4.06.02,4.51,2.31.18.92.1,2.09-.35,3.53-1.7,5.36-1.12,5.19-1.61,10.16-.24,2.48-1.03,5.75-3.4,6.57-2.58.89-4.25-.98-4.76-3.15-.71-4.57.03-17.48,5.6-19.41Z"></path>
    <path class="cls-1" d="M1226.49,149.7c.74,2.13-.74,4.73-4.14,6.58-6.96,3.8-35.39,13.04-36.68,19.14-1.29,6.16.47,34.2.83,42.69.93,21.93,2.04,51.56,5.1,67.11.6,3.03,1.55,6.04,2.16,9.15.52,2.61.21,5.31-2.6,6.29-3.06,1.06-4.68-1.27-5.62-3.99-.47-1.35-.77-2.79-1-3.97-.09-.45-.16-.84-.25-1.27-6.1-30.99-5.62-105.55-6.42-109.61-.55-2.8-2.93-2.29-5.92-1.25-9.17,3.18-15.95,11.14-23.88,13.89-2.18.75-4.08.37-4.69-2.69-.43-2.2.92-5.3,4.23-7.86,8.32-6.07,16.7-8.26,24.96-13.41,10-6.24,1.86-14,5.61-22.09.67-1.31,1.5-2.07,2.35-2.37,1.98-.69,4.08,1.12,4.69,4.2.44,2.24-.38,7.59.33,11.18.33,1.69.76,2.26,2.22,1.75,5.34-1.85,27.09-13.23,32.28-15.03,3.53-1.23,5.82-.24,6.44,1.54Z"></path>
  </g>
</svg>
