<?xml version="1.0" encoding="UTF-8"?>
<svg xmlns="http://www.w3.org/2000/svg" version="1.1" viewBox="0 0 255 73">
  <defs>
    <style>
      .cls-1 {
        fill: #fff;
      }
    </style>
  </defs>
  <g>
    <g id="Layer_1">
      <g>
        <path class="cls-1" d="M71.7,62.4l-12.2-9.5h-24.6v-29.5L57.7,4l22.7,19.4v29.5h-8.7s0,9.5,0,9.5ZM37.5,50.4h22.9l8.9,6.9v-6.9h8.7v-25.8L57.7,7.3l-20.2,17.3v25.8Z"></path>
        <g>
          <path class="cls-1" d="M102.9,25.6h2.5v23.7c-1.7,1.9-5,3.5-9.9,3.5s-9.9-3.4-9.9-10.1v-17h2.5v16c0,6.6,2.5,8.9,8.1,8.9s5-.6,6.6-2v-23h.1Z"></path>
          <path class="cls-1" d="M124.8,52.7c-7.9,0-14.2-6.2-14.2-13.8s6.3-13.8,14.2-13.8,14.1,5.9,14.1,13.9c-.1,7.6-6.5,13.7-14.1,13.7ZM124.8,27.4c-6.4,0-11.5,4.9-11.5,11.4s5,11.7,11.3,11.7,11.6-5,11.6-11.4c-.1-6.8-5.2-11.7-11.4-11.7Z"></path>
          <path class="cls-1" d="M158.7,52.2l-10.6-10.6h-1.5v10.6h-2.5v-26.6h5.2c4.3,0,9.7,1.6,9.7,7.7s-2.9,7.7-7.7,8.3l11.1,10.7h-3.7ZM148.7,39.5c5.3,0,7.7-2.6,7.7-6.1s-2.7-5.5-6.7-5.5h-3v11.6h2Z"></path>
          <path class="cls-1" d="M182.2,25.6h2.5v23.7c-1.7,1.9-5,3.5-9.9,3.5s-9.9-3.4-9.9-10.1v-17h2.5v16c0,6.6,2.5,8.9,8.1,8.9s5-.6,6.6-2v-23h0Z"></path>
          <path class="cls-1" d="M217.3,52.2l-1.7-18.5v-1.1c-.1,0-.3.8-.4,1l-10,19.6-10-19.6c-.2-.3-.3-.7-.4-1v1.2l-1.8,18.4h-2.6l2.9-27.4,11.4,21.8c.1.2.5,1,.5,1.3.1-.4.4-1.1.5-1.3l11.3-21.8,2.9,27.4s-2.6,0-2.6,0Z"></path>
        </g>
        <g>
          <path class="cls-1" d="M165.1,62.5h.7v3.5h4.8v-3.5h.7v7.9h-.7v-3.8h-4.8v3.8h-.7v-7.9Z"></path>
          <path class="cls-1" d="M176.8,62.4c2.3,0,4,1.8,4,4.1s-1.7,4.1-4,4.1-4-1.8-4-4.1,1.7-4.1,4-4.1ZM176.8,70c1.9,0,3.3-1.5,3.3-3.5s-1.4-3.5-3.3-3.5-3.3,1.5-3.3,3.5,1.4,3.5,3.3,3.5Z"></path>
          <path class="cls-1" d="M182.3,62.5h.7v7.3h3.9v.6h-4.6v-7.9h0Z"></path>
          <path class="cls-1" d="M188.3,62.5h2c1.3,0,2.3.3,3,.8,1,.7,1.6,1.8,1.6,3.1s-.6,2.4-1.4,3c-.8.6-1.8,1-3.4,1h-1.9v-7.9h0ZM190.3,69.9c1.2,0,2.1-.2,2.8-.8.7-.6,1.2-1.5,1.2-2.6s-.5-2.1-1.3-2.6c-.7-.5-1.6-.7-2.7-.7h-1.3v6.7h1.3Z"></path>
          <path class="cls-1" d="M196.4,62.5h.7v7.9h-.7v-7.9Z"></path>
          <path class="cls-1" d="M199,70.5v-7.9h.6l3.6,4.8c.5.7,1,1.3,1.5,2h0v-6.9h.6v7.9h-.6l-3.6-4.8c-.5-.7-1-1.3-1.5-2h0v6.9h-.6Z"></path>
          <path class="cls-1" d="M213.6,69.8c-.7.4-1.7.7-2.6.7-2.4,0-4.1-1.8-4.1-4.1s1.7-4.1,4.2-4.1,1.7.3,2.3.6v.8c-.6-.4-1.4-.8-2.4-.8-2.1,0-3.5,1.5-3.5,3.5s1.3,3.5,3.5,3.5,1.4-.2,1.9-.5v-2.2h-2v-.6h2.7v3.2h0Z"></path>
          <path class="cls-1" d="M215.2,69.2c.7.6,1.6.8,2.3.8,1.1,0,1.8-.5,1.8-1.5s-1-1.4-2-1.7c-1.1-.3-2.3-.7-2.3-2.2s1-2.1,2.4-2.1,1.6.2,2.2.6v.7c-.7-.5-1.5-.7-2.2-.7-1,0-1.7.5-1.7,1.5s1,1.4,2,1.6c1.1.3,2.3.7,2.3,2.3s-1,2.2-2.5,2.2-1.7-.2-2.3-.7v-.8Z"></path>
        </g>
      </g>
    </g>
  </g>
</svg>
